<?xml version="1.0" encoding="UTF-8"?>
<svg id="Layer_2" data-name="Layer 2" xmlns="http://www.w3.org/2000/svg" xmlns:xlink="http://www.w3.org/1999/xlink" viewBox="0 0 581.95 141.55">
  <defs>
    <style>
      .cls-1 {
        fill: none;
      }

      .cls-2 {
        clip-path: url(#clippath-1);
      }

      .cls-3 {
        clip-path: url(#clippath-3);
      }

      .cls-4 {
        clip-path: url(#clippath-2);
      }

      .cls-5 {
        fill: #fff;
      }

      .cls-6 {
        clip-path: url(#clippath);
      }
    </style>
    <clipPath id="clippath">
      <rect class="cls-1" width="581.95" height="141.55"/>
    </clipPath>
    <clipPath id="clippath-1">
      <rect class="cls-1" width="581.95" height="141.55"/>
    </clipPath>
    <clipPath id="clippath-2">
      <rect class="cls-1" width="581.95" height="141.55"/>
    </clipPath>
    <clipPath id="clippath-3">
      <rect class="cls-1" width="581.95" height="141.55"/>
    </clipPath>
  </defs>
  <g id="Layer_1-2" data-name="Layer 1">
    <g id="Brompton_logotype_white" data-name="Brompton logotype white">
      <g class="cls-6">
        <path class="cls-5" d="M7.83,7.83h566.3v125.88H7.83V7.83ZM0,141.55h581.95V0H0v141.55Z"/>
        <g class="cls-2">
          <path class="cls-5" d="M53.01,73.27h8.97c10.08,0,15.87,4.01,15.87,11.02s-5.33,10.84-13.91,10.84h-10.93v-21.86ZM53.01,46.43h9.44c8.66,0,13.63,3.61,13.63,9.9,0,6.83-5.21,10.75-14.29,10.75h-8.78v-20.65ZM85.25,84.66c0-7.35-4.15-12.28-12.33-14.65,6.73-2.37,10.56-7.56,10.56-14.33,0-4.45-1.71-8.27-4.93-11.05-3.68-3.16-9.03-4.77-15.91-4.77h-22.77v6.66h5.74v48.51h-5.74v6.66h23.89c13.06,0,21.5-6.69,21.5-17.03"/>
        </g>
        <polygon class="cls-5" points="238.98 95.03 233.26 95.03 233.26 53.44 253.88 92.88 253.95 93.02 256.13 93.02 276.93 53.44 276.95 95.03 271.19 95.03 271.19 101.69 290.34 101.69 290.34 95.03 284.44 95.03 284.44 46.53 290.38 46.53 290.38 39.87 277.28 39.87 255.13 81.19 233.11 40.01 233.04 39.87 219.81 39.87 219.81 46.53 225.75 46.53 225.74 95.03 219.81 95.03 219.81 101.69 238.98 101.69 238.98 95.03"/>
        <g class="cls-4">
          <path class="cls-5" d="M314.76,46.53h8.6c9.16,0,15.31,5.21,15.31,12.98,0,8.35-5.8,13.54-15.12,13.54-4.61,0-7.67-.12-8.79-.17v-26.34ZM320.95,95.03h-6.19v-15.6c1.81.09,5.16.17,8.41.17,14.18,0,22.99-7.74,22.99-20.19,0-11.51-9.42-19.55-22.9-19.55h-21.75v6.66h5.75v48.51h-5.75v6.66h19.44v-6.66Z"/>
        </g>
        <polygon class="cls-5" points="361.4 46.25 376.26 46.25 376.26 95.03 370.09 95.03 370.09 101.69 389.95 101.69 389.95 95.03 383.76 95.03 383.76 46.25 398.63 46.25 398.63 54.05 405.75 54.05 405.75 39.87 354.27 39.87 354.27 54.05 361.4 54.05 361.4 46.25"/>
        <g class="cls-3">
          <path class="cls-5" d="M180.72,46.24c13.55,0,24.53,10.98,24.53,24.54s-10.99,24.53-24.53,24.53-24.54-10.99-24.54-24.53,10.99-24.54,24.54-24.54M180.72,102.81c17.69,0,32.03-14.34,32.03-32.03s-14.34-32.03-32.03-32.03-32.03,14.34-32.03,32.03,14.34,32.03,32.03,32.03"/>
          <path class="cls-5" d="M442.88,46.24c13.55,0,24.54,10.98,24.54,24.54s-10.99,24.53-24.54,24.53-24.54-10.99-24.54-24.53,10.99-24.54,24.54-24.54M442.88,102.81c17.69,0,32.03-14.34,32.03-32.03s-14.34-32.03-32.03-32.03-32.03,14.34-32.03,32.03,14.34,32.03,32.03,32.03"/>
          <path class="cls-5" d="M107.81,46.52h7.85c9.79,0,15.4,4.22,15.4,11.58s-6.15,12.14-16.05,12.14c-2.94,0-5.5-.09-7.2-.18v-23.55ZM113.73,95.03h-5.92v-18.39c1.54.07,6.92.17,6.92.17,3.42,0,6.31.46,7.88,3.38l8.43,16.8c2.02,4.07,2.17,4.69,6.99,4.69h5.49v-6.65h-2.33c-2.1,0-3.51-1.13-4.39-2.99l-7.46-14.95c-.86-1.67-2.08-2.5-2.49-2.75,7.36-2.98,11.71-9.01,11.71-16.42,0-10.97-8.84-18.05-22.53-18.05h-21.47v6.66h5.75v48.51h-5.75v6.66h19.16v-6.66Z"/>
        </g>
        <polygon class="cls-5" points="494.98 52.99 531.96 101.71 536.36 101.71 536.36 46.52 542.09 46.52 542.09 39.87 522.82 39.87 522.82 46.52 529.24 46.52 529.24 86.05 494.28 39.97 494.2 39.87 482 39.87 482 46.52 487.77 46.52 487.77 95.03 482 95.03 482 101.69 500.89 101.69 500.89 95.03 494.98 95.03 494.98 52.99"/>
      </g>
    </g>
  </g>
</svg>