<?xml version="1.0" encoding="UTF-8"?>
<svg id="Layer_2" data-name="Layer 2" xmlns="http://www.w3.org/2000/svg" xmlns:xlink="http://www.w3.org/1999/xlink" viewBox="0 0 583.7 141.97">
  <defs>
    <style>
      .cls-1 {
        fill: none;
      }

      .cls-2 {
        clip-path: url(#clippath-1);
      }

      .cls-3 {
        clip-path: url(#clippath-3);
      }

      .cls-4 {
        clip-path: url(#clippath-2);
      }

      .cls-5 {
        clip-path: url(#clippath);
      }
    </style>
    <clipPath id="clippath">
      <rect class="cls-1" width="583.7" height="141.97"/>
    </clipPath>
    <clipPath id="clippath-1">
      <rect class="cls-1" width="583.7" height="141.97"/>
    </clipPath>
    <clipPath id="clippath-2">
      <rect class="cls-1" width="583.7" height="141.97"/>
    </clipPath>
    <clipPath id="clippath-3">
      <rect class="cls-1" width="583.7" height="141.97"/>
    </clipPath>
  </defs>
  <g id="Layer_1-2" data-name="Layer 1">
    <g id="Logo_BLK" data-name="Logo BLK">
      <g class="cls-5">
        <path d="M7.85,7.86h568v126.26H7.85V7.86ZM0,141.97h583.7V0H0v141.97Z"/>
        <g class="cls-2">
          <path d="M53.16,73.49h9c10.11,0,15.92,4.03,15.92,11.05s-5.35,10.87-13.95,10.87h-10.96v-21.92ZM53.16,46.57h9.47c8.69,0,13.67,3.62,13.67,9.93,0,6.85-5.22,10.78-14.33,10.78h-8.81v-20.71ZM85.5,84.92c0-7.37-4.16-12.31-12.37-14.69,6.75-2.38,10.59-7.58,10.59-14.37,0-4.46-1.71-8.29-4.95-11.08-3.69-3.17-9.06-4.78-15.96-4.78h-22.84v6.68h5.76v48.66h-5.76v6.68h23.96c13.1,0,21.56-6.71,21.56-17.08"/>
        </g>
        <polygon points="239.69 95.32 233.96 95.32 233.96 53.6 254.64 93.16 254.71 93.3 256.9 93.3 277.76 53.6 277.78 95.32 272 95.32 272 102 291.21 102 291.21 95.32 285.3 95.32 285.3 46.67 291.25 46.67 291.25 39.99 278.11 39.99 255.9 81.44 233.81 40.13 233.74 39.99 220.47 39.99 220.47 46.67 226.42 46.67 226.42 95.32 220.47 95.32 220.47 102 239.69 102 239.69 95.32"/>
        <g class="cls-4">
          <path d="M315.71,46.67h8.62c9.19,0,15.36,5.23,15.36,13.01,0,8.38-5.81,13.58-15.17,13.58-4.62,0-7.69-.12-8.81-.18v-26.42ZM321.92,95.32h-6.21v-15.65c1.81.09,5.18.17,8.44.17,14.22,0,23.06-7.76,23.06-20.25,0-11.54-9.44-19.6-22.97-19.6h-21.81v6.68h5.76v48.66h-5.76v6.68h19.49v-6.68Z"/>
        </g>
        <polygon points="362.48 46.39 377.39 46.39 377.39 95.32 371.2 95.32 371.2 102 391.12 102 391.12 95.32 384.91 95.32 384.91 46.39 399.83 46.39 399.83 54.21 406.97 54.21 406.97 39.99 355.34 39.99 355.34 54.21 362.48 54.21 362.48 46.39"/>
        <g class="cls-3">
          <path d="M181.27,46.38c13.59,0,24.61,11.02,24.61,24.61s-11.02,24.61-24.61,24.61-24.61-11.02-24.61-24.61,11.02-24.61,24.61-24.61M181.27,103.12c17.74,0,32.13-14.39,32.13-32.13s-14.38-32.13-32.13-32.13-32.13,14.39-32.13,32.13,14.38,32.13,32.13,32.13"/>
          <path d="M444.21,46.38c13.59,0,24.61,11.02,24.61,24.61s-11.02,24.61-24.61,24.61-24.61-11.02-24.61-24.61,11.02-24.61,24.61-24.61M444.21,103.12c17.74,0,32.13-14.39,32.13-32.13s-14.38-32.13-32.13-32.13-32.13,14.39-32.13,32.13,14.38,32.13,32.13,32.13"/>
          <path d="M108.14,46.66h7.88c9.82,0,15.45,4.23,15.45,11.62s-6.17,12.18-16.1,12.18c-2.94,0-5.52-.09-7.22-.18v-23.62ZM114.07,95.32h-5.94v-18.45c1.54.07,6.94.17,6.94.17,3.43,0,6.33.46,7.91,3.39l8.45,16.85c2.02,4.08,2.17,4.7,7.01,4.7h5.51v-6.67h-2.34c-2.11,0-3.52-1.13-4.4-3l-7.48-14.99c-.87-1.67-2.09-2.51-2.5-2.76,7.38-2.99,11.74-9.03,11.74-16.47,0-11-8.87-18.11-22.59-18.11h-21.53v6.68h5.76v48.66h-5.76v6.68h19.21v-6.68Z"/>
        </g>
        <polygon points="496.47 53.15 533.56 102.01 537.97 102.01 537.97 46.66 543.72 46.66 543.72 39.99 524.39 39.99 524.39 46.66 530.83 46.66 530.83 86.31 495.77 40.09 495.69 39.99 483.45 39.99 483.45 46.66 489.23 46.66 489.23 95.32 483.45 95.32 483.45 102 502.4 102 502.4 95.32 496.47 95.32 496.47 53.15"/>
      </g>
    </g>
  </g>
</svg>