<?xml version="1.0" encoding="UTF-8"?>
<svg id="Layer_2" data-name="Layer 2" xmlns="http://www.w3.org/2000/svg" xmlns:xlink="http://www.w3.org/1999/xlink" viewBox="0 0 1169.68 141.97">
  <defs>
    <style>
      .cls-1 {
        fill: none;
      }

      .cls-2 {
        clip-path: url(#clippath-1);
      }

      .cls-3 {
        clip-path: url(#clippath-3);
      }

      .cls-4 {
        clip-path: url(#clippath-4);
      }

      .cls-5 {
        clip-path: url(#clippath-2);
      }

      .cls-6 {
        clip-path: url(#clippath-5);
      }

      .cls-7 {
        clip-path: url(#clippath);
      }
    </style>
    <clipPath id="clippath">
      <rect class="cls-1" width="1169.68" height="141.97"/>
    </clipPath>
    <clipPath id="clippath-1">
      <rect class="cls-1" width="1169.69" height="141.97"/>
    </clipPath>
    <clipPath id="clippath-2">
      <rect class="cls-1" width="1169.69" height="141.97"/>
    </clipPath>
    <clipPath id="clippath-3">
      <rect class="cls-1" width="1169.69" height="141.97"/>
    </clipPath>
    <clipPath id="clippath-4">
      <rect class="cls-1" width="1169.69" height="141.97"/>
    </clipPath>
    <clipPath id="clippath-5">
      <rect class="cls-1" width="1169.69" height="141.97"/>
    </clipPath>
  </defs>
  <g id="Layer_1-2" data-name="Layer 1">
    <g id="Life_Unfolded_-_Long" data-name="Life Unfolded - Long">
      <g class="cls-7">
        <g class="cls-2">
          <path d="M76.94,92.5c-2.35,1.85-5.57,2.77-9.65,2.77h-10.41v-20.82h8.56c4.81,0,8.52.91,11.12,2.73,2.6,1.82,3.9,4.41,3.9,7.76s-1.17,5.71-3.53,7.56M56.88,48.93h8.98c4.09,0,7.26.83,9.53,2.48,2.27,1.65,3.4,3.96,3.4,6.93,0,3.25-1.19,5.76-3.57,7.56-2.38,1.79-5.69,2.69-9.95,2.69h-8.4v-19.64ZM75.85,71.34c3.19-1.12,5.65-2.87,7.39-5.25,1.73-2.38,2.6-5.16,2.6-8.35,0-4.36-1.57-7.86-4.7-10.49-3.41-3.02-8.45-4.53-15.11-4.53h-21.66v6.3h5.46v46.17h-5.46v6.3h22.75c4.08,0,7.67-.67,10.74-2.02,3.08-1.34,5.46-3.23,7.14-5.67,1.68-2.43,2.52-5.27,2.52-8.52,0-6.99-3.89-11.64-11.67-13.94"/>
          <path d="M114.13,71.59c-2.46,0-4.76-.06-6.88-.17v-22.41h7.47c4.64,0,8.24.96,10.79,2.9,2.55,1.93,3.82,4.66,3.82,8.19s-1.36,6.32-4.07,8.39c-2.72,2.07-6.42,3.11-11.12,3.11M134.78,92.33l-7.05-14.19c-.56-1.01-1.34-1.9-2.35-2.69,3.47-1.4,6.18-3.47,8.14-6.21,1.96-2.74,2.94-5.88,2.94-9.4s-.88-6.42-2.64-9.02c-1.76-2.6-4.25-4.6-7.47-6-3.22-1.4-6.98-2.1-11.29-2.1h-20.4v6.3h5.46v46.17h-5.46v6.3h18.22v-6.3h-5.62v-17.54l6.55.17c1.9,0,3.47.22,4.7.67,1.23.45,2.18,1.32,2.85,2.6l7.98,15.95c.78,1.51,1.36,2.53,1.72,3.06.36.53.88.9,1.55,1.09.67.2,1.79.29,3.36.29h5.21v-6.3h-2.18c-1.9,0-3.3-.95-4.2-2.85"/>
          <path d="M198.7,84.02c-2.1,3.58-4.94,6.42-8.52,8.52-3.58,2.1-7.5,3.15-11.75,3.15s-8.18-1.05-11.79-3.15c-3.61-2.1-6.48-4.94-8.6-8.52-2.13-3.58-3.19-7.5-3.19-11.75s1.06-8.18,3.19-11.79c2.13-3.61,5-6.48,8.6-8.61,3.61-2.13,7.54-3.19,11.79-3.19s8.17,1.06,11.75,3.19c3.58,2.13,6.42,4.99,8.52,8.61,2.1,3.61,3.15,7.54,3.15,11.79s-1.05,8.17-3.15,11.75M193.79,45.7c-4.7-2.77-9.82-4.15-15.36-4.15s-10.74,1.37-15.45,4.11c-4.7,2.74-8.42,6.48-11.16,11.21-2.74,4.73-4.11,9.86-4.11,15.41s1.37,10.66,4.11,15.36c2.74,4.7,6.46,8.42,11.16,11.16s9.85,4.11,15.45,4.11,10.66-1.37,15.36-4.11c4.7-2.74,8.42-6.46,11.16-11.16,2.74-4.7,4.11-9.82,4.11-15.36s-1.37-10.66-4.11-15.36c-2.74-4.7-6.46-8.44-11.16-11.21"/>
        </g>
        <polygon points="248.19 82 227.29 42.88 227.2 42.72 214.61 42.72 214.61 49.01 220.24 49.01 220.24 95.18 214.61 95.18 214.61 101.48 232.83 101.48 232.83 95.18 227.37 95.18 227.37 55.64 247.02 93.08 247.1 93.25 249.11 93.25 268.92 55.64 268.92 95.18 263.47 95.18 263.47 101.48 281.68 101.48 281.68 95.18 276.06 95.18 276.06 49.01 281.68 49.01 281.68 42.72 269.26 42.72 248.19 82"/>
        <g class="cls-5">
          <path d="M320.64,70.8c-2.58,2.32-6.07,3.48-10.49,3.48s-7.28-.08-8.39-.25v-24.93h8.23c4.36,0,7.88,1.13,10.54,3.4,2.66,2.27,3.99,5.25,3.99,8.94,0,3.92-1.29,7.04-3.86,9.36M321.18,45.07c-3.27-1.57-7.04-2.35-11.29-2.35h-20.73v6.38h5.54v46h-5.54l.08,6.38h18.39v-6.38h-5.88v-14.86c1.79.17,4.45.25,7.98.25,6.77,0,12.12-1.72,16.03-5.16,3.92-3.44,5.88-8.1,5.88-13.98,0-3.64-.92-6.87-2.77-9.7-1.85-2.83-4.41-5.02-7.68-6.59"/>
        </g>
        <polygon points="340.19 56.23 346.91 56.23 346.91 48.76 361.1 48.76 361.1 95.18 355.22 95.18 355.22 101.48 374.11 101.48 374.11 95.18 368.15 95.18 368.15 48.76 382.34 48.76 382.34 56.23 389.05 56.23 389.05 42.72 340.19 42.72 340.19 56.23"/>
        <g class="cls-3">
          <path d="M448.95,84.02c-2.1,3.58-4.94,6.42-8.52,8.52-3.58,2.1-7.5,3.15-11.75,3.15s-8.18-1.05-11.79-3.15c-3.61-2.1-6.48-4.94-8.6-8.52-2.13-3.58-3.19-7.5-3.19-11.75s1.06-8.18,3.19-11.79c2.13-3.61,4.99-6.48,8.6-8.61,3.61-2.13,7.54-3.19,11.79-3.19s8.17,1.06,11.75,3.19c3.58,2.13,6.42,4.99,8.52,8.61,2.1,3.61,3.15,7.54,3.15,11.79s-1.05,8.17-3.15,11.75M444.04,45.7c-4.7-2.77-9.82-4.15-15.36-4.15s-10.74,1.37-15.45,4.11c-4.7,2.74-8.42,6.48-11.16,11.21-2.74,4.73-4.11,9.86-4.11,15.41s1.37,10.66,4.11,15.36c2.74,4.7,6.46,8.42,11.16,11.16,4.7,2.74,9.85,4.11,15.45,4.11s10.66-1.37,15.36-4.11c4.7-2.74,8.42-6.46,11.16-11.16,2.74-4.7,4.11-9.82,4.11-15.36s-1.37-10.66-4.11-15.36c-2.74-4.7-6.46-8.44-11.16-11.21"/>
        </g>
        <polygon points="504.31 49.01 510.44 49.01 510.44 86.62 477.2 42.8 477.11 42.72 465.53 42.72 465.53 49.01 470.98 49.01 470.98 95.1 465.53 95.1 465.53 101.48 483.49 101.48 483.49 95.1 477.87 95.1 477.87 55.22 513.04 101.48 517.15 101.48 517.15 49.01 522.61 49.01 522.61 42.72 504.31 42.72 504.31 49.01"/>
        <path d="M6.32,6.32h549.77v129.33H6.32V6.32ZM562.4,6.32h600.96v129.33h-600.96V6.32ZM0,0v141.97h556.08s0,0,0,0h613.6V0H0Z"/>
        <polygon points="642.37 85.95 636.08 85.95 636.08 95.18 611.9 95.18 611.9 49.02 617.69 49.02 617.69 42.73 599.82 42.73 599.82 49.02 605.61 49.02 605.61 95.18 599.82 95.18 599.82 101.48 642.37 101.48 642.37 85.95"/>
        <polygon points="670.99 95.55 663.53 95.55 663.53 61.3 649.01 61.3 649.01 67.24 656.87 67.24 656.87 95.55 649.01 95.55 649.01 101.48 670.99 101.48 670.99 95.55"/>
        <rect x="655.88" y="44.96" width="8.12" height="8.37"/>
        <g class="cls-4">
          <path d="M700.9,95.55h-9.28v-28.31h12.88v-5.94h-12.88v-5.29c0-2.73.61-4.76,1.81-6.02,1.2-1.27,2.88-1.89,5.12-1.89,1.86,0,3.36.43,4.46,1.29,1.09.85,1.84,2.17,2.24,3.91l.17.75,6.09-1.88-.14-.64c-.69-3.11-2.09-5.52-4.17-7.17-2.07-1.65-4.98-2.48-8.65-2.48-4.51,0-7.94,1.27-10.21,3.78-2.25,2.49-3.39,5.97-3.39,10.36v5.29h-7.68v5.94h7.68v28.31h-7.68v5.94h23.62v-5.94Z"/>
          <path d="M715.05,73.78c1.1-2.19,2.67-3.93,4.66-5.18,1.99-1.24,4.33-1.87,6.97-1.87s5.06.61,6.97,1.82c1.92,1.21,3.42,2.9,4.45,5.01.71,1.45,1.19,3.07,1.42,4.82h-25.91c.26-1.67.74-3.21,1.43-4.59M706.65,81.52c0,4,.84,7.6,2.49,10.69,1.66,3.1,4.04,5.57,7.08,7.32,3.03,1.75,6.65,2.64,10.76,2.64,4.32,0,8.15-1.03,11.39-3.07,3.25-2.05,5.65-4.88,7.14-8.43l.28-.68-6.27-2.35-.27.62c-1.03,2.36-2.62,4.24-4.74,5.6-2.12,1.36-4.66,2.05-7.57,2.05s-5.23-.61-7.24-1.83c-2.01-1.21-3.58-2.9-4.66-5.04-.79-1.55-1.3-3.29-1.52-5.21h32.97l-.26-.7c.04-.2.06-.42.08-.67.01-.27.02-.65.02-1.12,0-4.02-.8-7.64-2.37-10.73-1.58-3.11-3.88-5.59-6.82-7.35-2.93-1.76-6.45-2.65-10.44-2.65s-7.5.9-10.5,2.68c-3,1.78-5.36,4.27-7.03,7.41-1.66,3.12-2.5,6.76-2.5,10.81"/>
          <path d="M775.52,79.41c0,12.84,10.41,23.41,23.42,23.41s23.41-10.57,23.41-23.41v-30.21h5.63v-6.46h-18.21v6.46h5.62v30.21c0,9.06-7.38,16.45-16.45,16.45s-16.53-7.38-16.53-16.45v-30.21h5.7v-6.46h-18.29v6.46h5.71v30.21Z"/>
          <path d="M851.41,95.55h-6.92v-13.99c0-3.22.57-5.99,1.71-8.23,1.12-2.22,2.66-3.94,4.57-5.1,1.92-1.16,4.08-1.75,6.44-1.75,2.88,0,4.91.8,6.21,2.46,1.32,1.68,1.99,4.06,1.99,7.06v19.56h-6.8v5.94h20.93v-5.94h-7.46v-20.25c0-4.59-1.1-8.22-3.28-10.78-2.21-2.59-5.57-3.91-9.99-3.91-2.76,0-5.25.52-7.39,1.54-2.15,1.03-3.94,2.54-5.31,4.49-.64.9-1.18,1.89-1.62,2.97v-8.31h-14.63v5.94h7.97v28.31h-7.97v5.94h21.55v-5.94Z"/>
          <path d="M908.76,95.55h-9.28v-28.31h12.89v-5.94h-12.89v-5.29c0-2.73.61-4.76,1.81-6.02,1.2-1.27,2.88-1.89,5.12-1.89,1.86,0,3.36.43,4.46,1.29,1.09.85,1.84,2.17,2.24,3.91l.17.75,6.09-1.88-.14-.64c-.68-3.11-2.08-5.52-4.16-7.17-2.07-1.65-4.98-2.48-8.65-2.48-4.51,0-7.94,1.27-10.2,3.78-2.25,2.49-3.39,5.98-3.39,10.36v5.29h-7.68v5.94h7.68v28.31h-7.68v5.94h23.62v-5.94Z"/>
          <path d="M936.39,66.87c2.77,0,5.24.62,7.34,1.85,2.09,1.22,3.76,2.95,4.94,5.13,1.19,2.19,1.79,4.77,1.79,7.67s-.6,5.42-1.78,7.57c-1.18,2.14-2.84,3.83-4.93,5.02-2.1,1.19-4.57,1.8-7.35,1.8s-5.24-.6-7.34-1.8c-2.09-1.19-3.75-2.88-4.93-5.02-1.18-2.15-1.78-4.7-1.78-7.57s.6-5.48,1.79-7.67c1.18-2.18,2.84-3.9,4.94-5.13,2.1-1.23,4.57-1.85,7.34-1.85M915.45,81.52c0,4.01.89,7.61,2.64,10.69,1.75,3.08,4.23,5.54,7.36,7.31,3.13,1.76,6.8,2.66,10.94,2.66s7.82-.89,10.94-2.66c3.13-1.77,5.61-4.23,7.36-7.31,1.75-3.08,2.64-6.68,2.64-10.69s-.89-7.67-2.64-10.81c-1.76-3.14-4.23-5.64-7.37-7.42-3.13-1.78-6.81-2.68-10.94-2.68s-7.81.9-10.94,2.68c-3.14,1.78-5.61,4.28-7.37,7.42-1.75,3.14-2.64,6.78-2.64,10.81"/>
        </g>
        <polygon points="982.26 95.55 974.29 95.55 974.29 42.56 959.66 42.56 959.66 48.5 967.63 48.5 967.63 95.55 959.66 95.55 959.66 101.48 982.26 101.48 982.26 95.55"/>
        <g class="cls-6">
          <path d="M1012.93,94.22c-2,1.24-4.41,1.88-7.18,1.88s-5.01-.63-7.03-1.88c-2.02-1.25-3.62-2.98-4.74-5.16-1.13-2.19-1.7-4.76-1.7-7.64s.56-5.49,1.65-7.69c1.08-2.17,2.66-3.9,4.67-5.13,2.01-1.24,4.42-1.86,7.16-1.86s5.23.62,7.24,1.84c2.01,1.22,3.58,2.94,4.67,5.11,1.1,2.2,1.65,4.76,1.65,7.62s-.57,5.5-1.69,7.72c-1.11,2.2-2.69,3.95-4.69,5.19M990.82,96.32c1.71,1.87,3.76,3.34,6.1,4.36,2.34,1.02,4.93,1.53,7.71,1.53,2.99,0,5.6-.59,7.76-1.74,2.15-1.15,3.91-2.69,5.23-4.59.57-.82,1.06-1.67,1.47-2.56v8.16h14.09v-5.94h-7.42v-52.98h-17.11v5.94h10.44v18.35c-1.41-1.68-3.06-3.04-4.93-4.07-2.63-1.46-5.64-2.2-8.95-2.2-3.97,0-7.48.9-10.43,2.67-2.96,1.77-5.28,4.26-6.91,7.4-1.62,3.12-2.44,6.75-2.44,10.77,0,2.98.48,5.77,1.41,8.29.94,2.52,2.27,4.75,3.98,6.62"/>
          <path d="M1044.12,73.78c1.1-2.19,2.67-3.93,4.66-5.18,1.99-1.24,4.33-1.87,6.97-1.87s5.06.61,6.97,1.82c1.92,1.21,3.42,2.9,4.45,5.01.71,1.45,1.19,3.07,1.42,4.82h-25.91c.26-1.67.74-3.21,1.43-4.59M1045.28,99.53c3.03,1.75,6.65,2.64,10.76,2.64,4.32,0,8.15-1.03,11.39-3.07,3.25-2.05,5.65-4.89,7.14-8.43l.29-.68-6.27-2.35-.27.62c-1.03,2.36-2.62,4.24-4.74,5.6-2.12,1.36-4.66,2.05-7.57,2.05s-5.23-.61-7.24-1.83c-2.01-1.21-3.58-2.9-4.66-5.04-.79-1.55-1.3-3.29-1.52-5.21h32.97l-.26-.7c.04-.19.06-.42.08-.67.01-.27.02-.65.02-1.12,0-4.02-.8-7.64-2.37-10.73-1.58-3.11-3.88-5.59-6.82-7.35-2.93-1.76-6.45-2.65-10.44-2.65s-7.5.9-10.5,2.68c-3,1.78-5.36,4.27-7.03,7.41-1.66,3.12-2.5,6.76-2.5,10.81s.84,7.6,2.49,10.69c1.66,3.1,4.04,5.57,7.08,7.32"/>
          <path d="M1110.27,94.22c-2,1.24-4.41,1.88-7.17,1.88s-5.01-.63-7.03-1.88c-2.03-1.25-3.62-2.99-4.74-5.16-1.13-2.19-1.71-4.76-1.71-7.64s.56-5.49,1.65-7.69c1.09-2.17,2.66-3.9,4.67-5.13,2.01-1.24,4.42-1.86,7.16-1.86s5.22.62,7.24,1.84c2.01,1.22,3.58,2.94,4.66,5.11,1.1,2.2,1.65,4.76,1.65,7.62s-.57,5.51-1.69,7.72c-1.11,2.2-2.69,3.95-4.69,5.19M1088.16,96.32c1.71,1.87,3.76,3.34,6.1,4.36,2.34,1.02,4.93,1.53,7.71,1.53,2.99,0,5.6-.59,7.76-1.74,2.15-1.15,3.91-2.69,5.23-4.59.57-.82,1.06-1.67,1.47-2.55v8.15h14.09v-5.94h-7.42v-52.98h-17.11v5.94h10.44v18.35c-1.41-1.67-3.06-3.03-4.93-4.07-2.63-1.46-5.64-2.2-8.95-2.2-3.97,0-7.48.9-10.42,2.67-2.95,1.77-5.28,4.26-6.91,7.4-1.62,3.12-2.44,6.75-2.44,10.77,0,2.98.48,5.77,1.41,8.29.94,2.53,2.28,4.75,3.98,6.62"/>
        </g>
      </g>
    </g>
  </g>
</svg>