<?xml version="1.0" encoding="UTF-8"?>
<svg id="Layer_2" data-name="Layer 2" xmlns="http://www.w3.org/2000/svg" xmlns:xlink="http://www.w3.org/1999/xlink" viewBox="0 0 222.68 276.74">
  <defs>
    <style>
      .cls-1 {
        fill: none;
      }

      .cls-2 {
        clip-path: url(#clippath-1);
      }

      .cls-3 {
        clip-path: url(#clippath-3);
      }

      .cls-4 {
        clip-path: url(#clippath-4);
      }

      .cls-5 {
        clip-path: url(#clippath-2);
      }

      .cls-6 {
        clip-path: url(#clippath-5);
      }

      .cls-7 {
        fill: #fff;
      }

      .cls-8 {
        clip-path: url(#clippath);
      }
    </style>
    <clipPath id="clippath">
      <rect class="cls-1" width="222.68" height="276.74"/>
    </clipPath>
    <clipPath id="clippath-1">
      <rect class="cls-1" width="222.68" height="276.74"/>
    </clipPath>
    <clipPath id="clippath-2">
      <rect class="cls-1" width="222.68" height="276.74"/>
    </clipPath>
    <clipPath id="clippath-3">
      <rect class="cls-1" width="222.68" height="276.74"/>
    </clipPath>
    <clipPath id="clippath-4">
      <rect class="cls-1" width="222.68" height="276.74"/>
    </clipPath>
    <clipPath id="clippath-5">
      <rect class="cls-1" width="222.68" height="276.74"/>
    </clipPath>
  </defs>
  <g id="Layer_1-2" data-name="Layer 1">
    <g id="Life_Unfolded_-wht" data-name="Life Unfolded -wht">
      <g class="cls-8">
        <g class="cls-2">
          <path class="cls-7" d="M30.46,36.62c-.93.73-2.21,1.1-3.82,1.1h-4.12v-8.24h3.39c1.91,0,3.37.36,4.4,1.08,1.03.72,1.55,1.74,1.55,3.07s-.47,2.26-1.4,2.99M22.52,19.37h3.56c1.62,0,2.88.33,3.77.98.9.65,1.35,1.57,1.35,2.74,0,1.29-.47,2.28-1.41,2.99-.94.71-2.26,1.06-3.94,1.06h-3.32v-7.78ZM30.03,28.25c1.26-.44,2.24-1.14,2.93-2.08.69-.94,1.03-2.04,1.03-3.31,0-1.73-.62-3.11-1.86-4.15-1.35-1.2-3.35-1.79-5.98-1.79h-8.58v2.49h2.16v18.28h-2.16v2.49h9.01c1.62,0,3.04-.27,4.25-.8,1.22-.53,2.16-1.28,2.83-2.24.66-.96,1-2.09,1-3.37,0-2.77-1.54-4.61-4.62-5.52"/>
          <path class="cls-7" d="M45.19,28.35c-.98,0-1.88-.02-2.73-.07v-8.87h2.96c1.84,0,3.26.38,4.27,1.15,1.01.76,1.51,1.84,1.51,3.24s-.54,2.5-1.61,3.32c-1.08.82-2.54,1.23-4.4,1.23M53.36,36.56l-2.79-5.62c-.22-.4-.53-.75-.93-1.06,1.37-.55,2.45-1.37,3.22-2.46.78-1.09,1.16-2.33,1.16-3.72s-.35-2.54-1.05-3.57c-.7-1.03-1.68-1.82-2.96-2.38-1.27-.55-2.76-.83-4.47-.83h-8.08v2.49h2.16v18.28h-2.16v2.49h7.21v-2.49h-2.23v-6.95l2.59.07c.75,0,1.37.09,1.86.27.49.18.86.52,1.13,1.03l3.16,6.32c.31.6.54,1,.68,1.21.14.21.35.35.61.43.27.08.71.12,1.33.12h2.06v-2.49h-.86c-.75,0-1.31-.38-1.66-1.13"/>
          <path class="cls-7" d="M78.67,33.27c-.83,1.42-1.96,2.54-3.37,3.37-1.42.83-2.97,1.25-4.65,1.25s-3.24-.42-4.67-1.25c-1.43-.83-2.57-1.96-3.41-3.37-.84-1.42-1.26-2.97-1.26-4.65s.42-3.24,1.26-4.67c.84-1.43,1.98-2.56,3.41-3.41,1.43-.84,2.99-1.26,4.67-1.26s3.23.42,4.65,1.26c1.42.84,2.54,1.98,3.37,3.41.83,1.43,1.25,2.99,1.25,4.67s-.42,3.24-1.25,4.65M76.73,18.09c-1.86-1.1-3.89-1.65-6.08-1.65s-4.25.54-6.12,1.63c-1.86,1.09-3.34,2.57-4.42,4.44-1.09,1.87-1.63,3.91-1.63,6.1s.54,4.22,1.63,6.08c1.09,1.86,2.56,3.34,4.42,4.42,1.86,1.09,3.9,1.63,6.12,1.63s4.22-.54,6.08-1.63c1.86-1.09,3.33-2.56,4.42-4.42,1.09-1.86,1.63-3.89,1.63-6.08s-.54-4.22-1.63-6.08c-1.09-1.86-2.56-3.34-4.42-4.44"/>
        </g>
        <polygon class="cls-7" points="98.27 32.47 89.99 16.98 89.96 16.91 84.97 16.91 84.97 19.41 87.2 19.41 87.2 37.69 84.97 37.69 84.97 40.18 92.19 40.18 92.19 37.69 90.02 37.69 90.02 22.03 97.8 36.86 97.84 36.92 98.63 36.92 106.48 22.03 106.48 37.69 104.32 37.69 104.32 40.18 111.53 40.18 111.53 37.69 109.3 37.69 109.3 19.41 111.53 19.41 111.53 16.91 106.61 16.91 98.27 32.47"/>
        <g class="cls-5">
          <path class="cls-7" d="M126.95,28.03c-1.02.92-2.4,1.38-4.16,1.38s-2.88-.03-3.32-.1v-9.87h3.26c1.73,0,3.12.45,4.17,1.35,1.05.9,1.58,2.08,1.58,3.54,0,1.55-.51,2.79-1.53,3.71M127.17,17.84c-1.3-.62-2.79-.93-4.47-.93h-8.21v2.53h2.19v18.21h-2.19l.03,2.53h7.28v-2.53h-2.33v-5.88c.71.07,1.76.1,3.16.1,2.68,0,4.8-.68,6.35-2.04,1.55-1.36,2.33-3.21,2.33-5.53,0-1.44-.37-2.72-1.1-3.84-.73-1.12-1.75-1.99-3.04-2.61"/>
        </g>
        <polygon class="cls-7" points="134.7 22.26 137.36 22.26 137.36 19.31 142.97 19.31 142.97 37.69 140.65 37.69 140.65 40.18 148.12 40.18 148.12 37.69 145.76 37.69 145.76 19.31 151.38 19.31 151.38 22.26 154.04 22.26 154.04 16.91 134.7 16.91 134.7 22.26"/>
        <g class="cls-3">
          <path class="cls-7" d="M177.76,33.27c-.83,1.42-1.96,2.54-3.37,3.37-1.42.83-2.97,1.25-4.65,1.25s-3.24-.42-4.67-1.25-2.57-1.96-3.41-3.37c-.84-1.42-1.26-2.97-1.26-4.65s.42-3.24,1.26-4.67c.84-1.43,1.98-2.56,3.41-3.41,1.43-.84,2.99-1.26,4.67-1.26s3.24.42,4.65,1.26c1.42.84,2.54,1.98,3.37,3.41.83,1.43,1.25,2.99,1.25,4.67s-.42,3.24-1.25,4.65M175.81,18.09c-1.86-1.1-3.89-1.65-6.08-1.65s-4.25.54-6.12,1.63c-1.86,1.09-3.34,2.57-4.42,4.44-1.09,1.87-1.63,3.91-1.63,6.1s.54,4.22,1.63,6.08c1.09,1.86,2.56,3.34,4.42,4.42,1.86,1.09,3.9,1.63,6.12,1.63s4.22-.54,6.08-1.63c1.86-1.09,3.33-2.56,4.42-4.42,1.09-1.86,1.63-3.89,1.63-6.08s-.54-4.22-1.63-6.08-2.56-3.34-4.42-4.44"/>
        </g>
        <polygon class="cls-7" points="199.68 19.41 202.1 19.41 202.1 34.3 188.94 16.95 188.91 16.91 184.32 16.91 184.32 19.41 186.48 19.41 186.48 37.65 184.32 37.65 184.32 40.18 191.43 40.18 191.43 37.65 189.21 37.65 189.21 21.87 203.13 40.18 204.76 40.18 204.76 19.41 206.92 19.41 206.92 16.91 199.68 16.91 199.68 19.41"/>
        <path class="cls-7" d="M2.5,56.21h217.67v218.02H2.5V56.21ZM2.5,2.5h217.67v51.21H2.5V2.5ZM0,0v276.74h222.68V0H0Z"/>
        <polygon class="cls-7" points="36.19 218.96 33.7 218.96 33.7 222.62 24.13 222.62 24.13 204.34 26.42 204.34 26.42 201.85 19.34 201.85 19.34 204.34 21.64 204.34 21.64 222.62 19.34 222.62 19.34 225.11 36.19 225.11 36.19 218.96"/>
        <rect class="cls-7" x="41.54" y="202.78" width="3.21" height="3.31"/>
        <polygon class="cls-7" points="47.52 222.8 44.57 222.8 44.57 209.24 38.82 209.24 38.82 211.6 41.93 211.6 41.93 222.8 38.82 222.8 38.82 225.15 47.52 225.15 47.52 222.8"/>
        <g class="cls-4">
          <path class="cls-7" d="M59.37,222.8h-3.67v-11.21h5.1v-2.35h-5.1v-2.1c0-1.08.24-1.88.71-2.39.48-.5,1.14-.75,2.03-.75.74,0,1.33.17,1.76.51.43.34.73.86.89,1.55l.07.3,2.41-.74-.06-.25c-.27-1.23-.83-2.19-1.65-2.84-.82-.65-1.97-.98-3.42-.98-1.79,0-3.15.5-4.04,1.5-.89.98-1.34,2.36-1.34,4.1v2.1h-3.04v2.35h3.04v11.21h-3.04v2.35h9.35v-2.35Z"/>
          <path class="cls-7" d="M64.97,214.18c.43-.87,1.06-1.56,1.84-2.05.79-.49,1.72-.74,2.76-.74s2,.24,2.76.72c.76.48,1.35,1.15,1.76,1.98.28.57.47,1.21.56,1.91h-10.26c.1-.66.29-1.27.57-1.82M61.64,217.25c0,1.59.33,3.01.98,4.23.66,1.23,1.6,2.2,2.8,2.9,1.2.69,2.63,1.05,4.26,1.05,1.71,0,3.23-.41,4.51-1.22,1.29-.81,2.24-1.93,2.83-3.34l.11-.27-2.48-.93-.11.24c-.41.93-1.04,1.68-1.88,2.22-.84.54-1.84.81-3,.81s-2.07-.24-2.87-.72c-.8-.48-1.42-1.15-1.85-2-.31-.61-.51-1.31-.6-2.06h13.06l-.11-.28c.02-.08.03-.17.03-.26,0-.11,0-.26,0-.44,0-1.59-.32-3.02-.94-4.25-.63-1.23-1.54-2.21-2.7-2.91-1.16-.7-2.56-1.05-4.14-1.05s-2.97.36-4.16,1.06c-1.19.71-2.12,1.7-2.78,2.94-.66,1.23-.99,2.68-.99,4.28"/>
          <path class="cls-7" d="M20.04,247.34c0,5.08,4.12,9.27,9.27,9.27s9.27-4.19,9.27-9.27v-11.96h2.23v-2.56h-7.21v2.56h2.23v11.96c0,3.59-2.92,6.51-6.51,6.51s-6.55-2.92-6.55-6.51v-11.96h2.26v-2.56h-7.24v2.56h2.26v11.96Z"/>
          <path class="cls-7" d="M47.35,240.21h-5.79v2.35h3.16v11.21h-3.16v2.35h8.53v-2.35h-2.74v-5.54c0-1.28.23-2.37.68-3.26.44-.88,1.05-1.56,1.81-2.02.76-.46,1.62-.69,2.55-.69,1.14,0,1.94.32,2.46.97.52.67.79,1.61.79,2.79v7.74h-2.69v2.35h8.29v-2.35h-2.95v-8.02c0-1.82-.44-3.25-1.3-4.27-.87-1.03-2.2-1.55-3.95-1.55-1.09,0-2.08.21-2.92.61-.85.41-1.56,1.01-2.1,1.78-.25.35-.47.75-.64,1.17v-3.29Z"/>
          <path class="cls-7" d="M76.94,236.34c-.27-1.23-.83-2.19-1.65-2.84-.82-.65-1.97-.98-3.42-.98-1.79,0-3.15.5-4.04,1.5-.89.98-1.34,2.36-1.34,4.1v2.1h-3.04v2.35h3.04v11.21h-3.04v2.35h9.35v-2.35h-3.67v-11.21h5.1v-2.35h-5.1v-2.1c0-1.08.24-1.88.72-2.39.48-.5,1.14-.75,2.03-.75.74,0,1.33.17,1.76.51.43.34.73.86.89,1.55l.07.3,2.41-.74-.06-.25Z"/>
          <path class="cls-7" d="M83.59,242.42c1.1,0,2.07.25,2.91.73.83.49,1.49,1.17,1.96,2.03.47.87.71,1.89.71,3.04s-.24,2.15-.71,3c-.47.85-1.12,1.52-1.95,1.99-.83.47-1.81.71-2.91.71s-2.08-.24-2.91-.71c-.83-.47-1.49-1.14-1.95-1.99-.47-.85-.71-1.86-.71-3s.24-2.17.71-3.04c.47-.86,1.13-1.55,1.96-2.03.83-.49,1.81-.73,2.9-.73M75.3,248.22c0,1.59.35,3.01,1.05,4.23.69,1.22,1.68,2.2,2.92,2.89,1.24.7,2.69,1.05,4.33,1.05s3.09-.35,4.33-1.05c1.24-.7,2.22-1.67,2.92-2.89.69-1.22,1.05-2.64,1.05-4.23s-.35-3.04-1.04-4.28c-.69-1.24-1.68-2.23-2.92-2.94-1.24-.7-2.7-1.06-4.33-1.06s-3.09.36-4.33,1.06c-1.24.71-2.22,1.7-2.92,2.94-.69,1.24-1.04,2.68-1.04,4.28"/>
        </g>
        <polygon class="cls-7" points="101.75 253.77 98.6 253.77 98.6 232.8 92.8 232.8 92.8 235.14 95.96 235.14 95.96 253.77 92.8 253.77 92.8 256.12 101.75 256.12 101.75 253.77"/>
        <g class="cls-6">
          <path class="cls-7" d="M113.89,253.25c-.79.49-1.75.74-2.84.74s-1.98-.25-2.78-.74c-.8-.49-1.43-1.18-1.88-2.04-.45-.87-.67-1.89-.67-3.03s.22-2.17.65-3.04c.43-.86,1.05-1.54,1.85-2.03.8-.49,1.75-.74,2.84-.74s2.07.25,2.87.73c.8.48,1.42,1.16,1.85,2.02.43.87.65,1.88.65,3.01s-.22,2.18-.67,3.06c-.44.87-1.06,1.56-1.86,2.06M105.14,254.08c.68.74,1.49,1.32,2.42,1.73.93.4,1.95.61,3.05.61,1.18,0,2.22-.23,3.07-.69.85-.46,1.55-1.07,2.07-1.82.23-.32.42-.66.58-1.01v3.23h5.58v-2.35h-2.94v-20.98h-6.77v2.35h4.14v7.27c-.56-.66-1.21-1.2-1.95-1.61-1.04-.58-2.23-.87-3.55-.87-1.57,0-2.96.36-4.13,1.06-1.17.7-2.09,1.69-2.73,2.93-.64,1.23-.97,2.67-.97,4.26,0,1.18.19,2.28.56,3.28.37,1,.9,1.88,1.58,2.62"/>
          <path class="cls-7" d="M126.24,245.16c.43-.87,1.06-1.56,1.84-2.05.79-.49,1.72-.74,2.76-.74s2,.24,2.76.72c.76.48,1.35,1.15,1.76,1.98.28.57.47,1.21.56,1.91h-10.26c.1-.66.29-1.27.57-1.82M126.7,255.35c1.2.69,2.63,1.05,4.26,1.05,1.71,0,3.23-.41,4.51-1.22,1.29-.81,2.24-1.93,2.83-3.34l.11-.27-2.48-.93-.11.24c-.41.93-1.04,1.68-1.87,2.22-.84.54-1.85.81-3,.81s-2.07-.24-2.87-.72c-.8-.48-1.42-1.15-1.85-2-.31-.61-.51-1.31-.6-2.06h13.05l-.1-.28c.02-.08.02-.17.03-.27,0-.11,0-.26,0-.44,0-1.59-.32-3.02-.94-4.25-.63-1.23-1.54-2.21-2.7-2.91-1.16-.7-2.55-1.05-4.13-1.05s-2.97.36-4.16,1.06c-1.19.71-2.12,1.7-2.78,2.94-.66,1.23-.99,2.68-.99,4.28s.33,3.01.98,4.23c.66,1.23,1.6,2.2,2.8,2.9"/>
          <path class="cls-7" d="M152.43,253.25c-.79.49-1.75.74-2.84.74s-1.99-.25-2.78-.74c-.8-.49-1.43-1.18-1.88-2.04-.45-.87-.67-1.88-.67-3.03s.22-2.17.65-3.04c.43-.86,1.05-1.55,1.85-2.03.8-.49,1.75-.74,2.84-.74s2.07.25,2.87.73c.79.48,1.42,1.16,1.85,2.02.43.87.65,1.88.65,3.01s-.22,2.18-.67,3.06c-.44.87-1.07,1.56-1.86,2.06M143.68,254.08c.68.74,1.49,1.32,2.42,1.73.93.4,1.95.61,3.05.61,1.19,0,2.22-.23,3.07-.69.85-.46,1.55-1.07,2.07-1.82.23-.32.42-.66.58-1.01v3.23h5.58v-2.35h-2.94v-20.98h-6.77v2.35h4.14v7.27c-.56-.66-1.21-1.2-1.95-1.61-1.04-.58-2.23-.87-3.55-.87-1.57,0-2.96.36-4.13,1.06-1.17.7-2.09,1.69-2.74,2.93-.64,1.23-.97,2.67-.97,4.26,0,1.18.19,2.28.56,3.28.37,1,.9,1.88,1.58,2.62"/>
        </g>
      </g>
    </g>
  </g>
</svg>